<svg id="visual" viewBox="0 0 227 344.5" width="227" height="344.5" xmlns="http://www.w3.org/2000/svg" xmlns:xlink="http://www.w3.org/1999/xlink" version="1.1"><rect x="0" y="0" width="227" height="344.5" fill="#111827"></rect><defs><linearGradient id="grad1_0" x1="0%" y1="0%" x2="100%" y2="100%"><stop offset="30%" stop-color="#111827" stop-opacity="1"></stop><stop offset="70%" stop-color="#111827" stop-opacity="1"></stop></linearGradient></defs><defs><linearGradient id="grad2_0" x1="0%" y1="0%" x2="100%" y2="100%"><stop offset="30%" stop-color="#111827" stop-opacity="1"></stop><stop offset="70%" stop-color="#111827" stop-opacity="1"></stop></linearGradient></defs><g transform="translate(227, 0)"><path d="M0 144.4C-8.1 141.7 -16.2 138.9 -23.8 134.9C-31.3 130.9 -38.3 125.7 -43.4 119.3C-48.6 113 -51.8 105.5 -61 105.7C-70.2 105.8 -85.3 113.4 -92.8 110.6C-100.3 107.8 -100.2 94.5 -99.6 83.6C-99 72.6 -97.9 64.1 -99.6 57.5C-101.3 50.9 -105.7 46.3 -113.7 41.4C-121.7 36.5 -133.2 31.4 -138.9 24.5C-144.6 17.5 -144.5 8.8 -144.4 0L0 0Z" fill="#be185d"></path></g><g transform="translate(0, 344.5)"><path d="M0 -144.4C5.5 -128.2 11.1 -112 20 -113.3C28.8 -114.5 41 -133.3 49.4 -135.7C57.7 -138.1 62.2 -124.2 66 -114.3C69.8 -104.4 72.9 -98.6 79.7 -95C86.5 -91.4 97.1 -89.9 98.8 -82.9C100.5 -75.9 93.3 -63.4 99.6 -57.5C105.9 -51.6 125.6 -52.5 129.7 -47.2C133.8 -41.9 122.3 -30.4 122.1 -21.5C122 -12.6 133.2 -6.3 144.4 0L0 0Z" fill="#be185d"></path></g></svg>