<svg xmlns="http://www.w3.org/2000/svg" version="1.1" xmlns:xlink="http://www.w3.org/1999/xlink" xmlns:svgjs="http://svgjs.dev/svgjs" width="1440" height="560" preserveAspectRatio="none" viewBox="0 0 1440 560"><g mask="url(&quot;#SvgjsMask1008&quot;)" fill="none"><path d="M1291.9-42.33C1162.07-37.82 1056.45 165.89 815.98 166.25 575.51 166.61 578.01 96.25 340.05 96.25 102.09 96.25-15.61 166.06-135.87 166.25" stroke="rgba(190, 24, 93, 1)" stroke-width="2"></path><path d="M504.11-33.64C389.75 32.88 452.1 420.17 240.57 425.26 29.04 430.35-149.04 270.11-286.51 268.46" stroke="rgba(190, 24, 93, 1)" stroke-width="2"></path><path d="M1046.84-12.09C891.26-0.67 799.84 295.45 508.91 304.12 217.97 312.79 109.25 432.03-29.03 432.92" stroke="rgba(190, 24, 93, 1)" stroke-width="2"></path><path d="M1019.28-32.83C834.37 14.54 765.57 517.15 492.38 519.76 219.19 522.37 112.55 263.75-34.52 256.56" stroke="rgba(190, 24, 93, 1)" stroke-width="2"></path><path d="M1042.77-73.77C874.39-49.45 808.52 331.77 508.44 347.61 208.37 363.45 111.52 475.5-25.88 476.41" stroke="rgba(190, 24, 93, 1)" stroke-width="2"></path></g><defs><mask id="SvgjsMask1008"><rect width="1440" height="560" fill="#ffffff"></rect></mask></defs></svg>