<svg xmlns="http://www.w3.org/2000/svg" version="1.1" xmlns:xlink="http://www.w3.org/1999/xlink" xmlns:svgjs="http://svgjs.dev/svgjs" width="1440" height="560" preserveAspectRatio="none" viewBox="0 0 1440 560"><g mask="url(&quot;#SvgjsMask1003&quot;)" fill="none"><path d="M115.13 49.76L180.09 87.26L180.09 162.26L115.13 199.76L50.18 162.26L50.18 87.26zM50.18 162.26L115.13 199.76L115.13 274.76L50.18 312.26L-14.77 274.76L-14.77 199.76zM180.09 162.26L245.04 199.76L245.04 274.76L180.09 312.26L115.13 274.76L115.13 199.76zM310 -62.74L374.95 -25.24L374.95 49.76L310 87.26L245.04 49.76L245.04 -25.24zM310 162.26L374.95 199.76L374.95 274.76L310 312.26L245.04 274.76L245.04 199.76zM374.95 274.76L439.9 312.26L439.9 387.26L374.95 424.76L310 387.26L310 312.26zM310 387.26L374.95 424.76L374.95 499.76L310 537.26L245.04 499.76L245.04 424.76zM374.95 499.76L439.9 537.26L439.9 612.26L374.95 649.76L310 612.26L310 537.26zM439.9 -62.74L504.86 -25.24L504.86 49.76L439.9 87.26L374.95 49.76L374.95 -25.24zM504.86 499.76L569.81 537.26L569.81 612.26L504.86 649.76L439.9 612.26L439.9 537.26zM569.81 -62.74L634.76 -25.24L634.76 49.76L569.81 87.26L504.86 49.76L504.86 -25.24zM569.81 162.26L634.76 199.76L634.76 274.76L569.81 312.26L504.86 274.76L504.86 199.76zM634.76 274.76L699.72 312.26L699.72 387.26L634.76 424.76L569.81 387.26L569.81 312.26zM764.67 49.76L829.63 87.26L829.63 162.26L764.67 199.76L699.72 162.26L699.72 87.26zM699.72 162.26L764.67 199.76L764.67 274.76L699.72 312.26L634.76 274.76L634.76 199.76zM699.72 387.26L764.67 424.76L764.67 499.76L699.72 537.26L634.76 499.76L634.76 424.76zM764.67 499.76L829.63 537.26L829.63 612.26L764.67 649.76L699.72 612.26L699.72 537.26zM894.58 49.76L959.53 87.26L959.53 162.26L894.58 199.76L829.62 162.26L829.62 87.26zM829.62 162.26L894.58 199.76L894.58 274.76L829.62 312.26L764.67 274.76L764.67 199.76zM894.58 274.76L959.53 312.26L959.53 387.26L894.58 424.76L829.62 387.26L829.62 312.26zM829.62 387.26L894.58 424.76L894.58 499.76L829.62 537.26L764.67 499.76L764.67 424.76zM1024.49 49.76L1089.44 87.26L1089.44 162.26L1024.49 199.76L959.53 162.26L959.53 87.26zM1024.49 274.76L1089.44 312.26L1089.44 387.26L1024.49 424.76L959.53 387.26L959.53 312.26zM959.53 387.26L1024.49 424.76L1024.49 499.76L959.53 537.26L894.58 499.76L894.58 424.76zM1089.44 -62.74L1154.39 -25.24L1154.39 49.76L1089.44 87.26L1024.49 49.76L1024.49 -25.24zM1089.44 162.26L1154.39 199.76L1154.39 274.76L1089.44 312.26L1024.49 274.76L1024.49 199.76zM1219.35 162.26L1284.3 199.76L1284.3 274.76L1219.35 312.26L1154.39 274.76L1154.39 199.76zM1349.26 387.26L1414.21 424.76L1414.21 499.76L1349.26 537.26L1284.3 499.76L1284.3 424.76zM1479.16 -62.74L1544.12 -25.24L1544.12 49.76L1479.16 87.26L1414.21 49.76L1414.21 -25.24zM1479.16 162.26L1544.12 199.76L1544.12 274.76L1479.16 312.26L1414.21 274.76L1414.21 199.76z" stroke="rgba(0, 0, 0, 0)" stroke-width="2"></path><path d="M107.63 49.76 a7.5 7.5 0 1 0 15 0 a7.5 7.5 0 1 0 -15 0zM172.59 87.26 a7.5 7.5 0 1 0 15 0 a7.5 7.5 0 1 0 -15 0zM172.59 162.26 a7.5 7.5 0 1 0 15 0 a7.5 7.5 0 1 0 -15 0zM107.63 199.76 a7.5 7.5 0 1 0 15 0 a7.5 7.5 0 1 0 -15 0zM42.68 162.26 a7.5 7.5 0 1 0 15 0 a7.5 7.5 0 1 0 -15 0zM42.68 87.26 a7.5 7.5 0 1 0 15 0 a7.5 7.5 0 1 0 -15 0zM107.63 274.76 a7.5 7.5 0 1 0 15 0 a7.5 7.5 0 1 0 -15 0zM42.68 312.26 a7.5 7.5 0 1 0 15 0 a7.5 7.5 0 1 0 -15 0zM-22.27 274.76 a7.5 7.5 0 1 0 15 0 a7.5 7.5 0 1 0 -15 0zM-22.27 199.76 a7.5 7.5 0 1 0 15 0 a7.5 7.5 0 1 0 -15 0zM237.54 199.76 a7.5 7.5 0 1 0 15 0 a7.5 7.5 0 1 0 -15 0zM237.54 274.76 a7.5 7.5 0 1 0 15 0 a7.5 7.5 0 1 0 -15 0zM172.59 312.26 a7.5 7.5 0 1 0 15 0 a7.5 7.5 0 1 0 -15 0zM302.5 -62.74 a7.5 7.5 0 1 0 15 0 a7.5 7.5 0 1 0 -15 0zM367.45 -25.24 a7.5 7.5 0 1 0 15 0 a7.5 7.5 0 1 0 -15 0zM367.45 49.76 a7.5 7.5 0 1 0 15 0 a7.5 7.5 0 1 0 -15 0zM302.5 87.26 a7.5 7.5 0 1 0 15 0 a7.5 7.5 0 1 0 -15 0zM237.54 49.76 a7.5 7.5 0 1 0 15 0 a7.5 7.5 0 1 0 -15 0zM237.54 -25.24 a7.5 7.5 0 1 0 15 0 a7.5 7.5 0 1 0 -15 0zM302.5 162.26 a7.5 7.5 0 1 0 15 0 a7.5 7.5 0 1 0 -15 0zM367.45 199.76 a7.5 7.5 0 1 0 15 0 a7.5 7.5 0 1 0 -15 0zM367.45 274.76 a7.5 7.5 0 1 0 15 0 a7.5 7.5 0 1 0 -15 0zM302.5 312.26 a7.5 7.5 0 1 0 15 0 a7.5 7.5 0 1 0 -15 0zM432.4 312.26 a7.5 7.5 0 1 0 15 0 a7.5 7.5 0 1 0 -15 0zM432.4 387.26 a7.5 7.5 0 1 0 15 0 a7.5 7.5 0 1 0 -15 0zM367.45 424.76 a7.5 7.5 0 1 0 15 0 a7.5 7.5 0 1 0 -15 0zM302.5 387.26 a7.5 7.5 0 1 0 15 0 a7.5 7.5 0 1 0 -15 0zM367.45 499.76 a7.5 7.5 0 1 0 15 0 a7.5 7.5 0 1 0 -15 0zM302.5 537.26 a7.5 7.5 0 1 0 15 0 a7.5 7.5 0 1 0 -15 0zM237.54 499.76 a7.5 7.5 0 1 0 15 0 a7.5 7.5 0 1 0 -15 0zM237.54 424.76 a7.5 7.5 0 1 0 15 0 a7.5 7.5 0 1 0 -15 0zM432.4 537.26 a7.5 7.5 0 1 0 15 0 a7.5 7.5 0 1 0 -15 0zM432.4 612.26 a7.5 7.5 0 1 0 15 0 a7.5 7.5 0 1 0 -15 0zM367.45 649.76 a7.5 7.5 0 1 0 15 0 a7.5 7.5 0 1 0 -15 0zM302.5 612.26 a7.5 7.5 0 1 0 15 0 a7.5 7.5 0 1 0 -15 0zM432.4 -62.74 a7.5 7.5 0 1 0 15 0 a7.5 7.5 0 1 0 -15 0zM497.36 -25.24 a7.5 7.5 0 1 0 15 0 a7.5 7.5 0 1 0 -15 0zM497.36 49.76 a7.5 7.5 0 1 0 15 0 a7.5 7.5 0 1 0 -15 0zM432.4 87.26 a7.5 7.5 0 1 0 15 0 a7.5 7.5 0 1 0 -15 0zM497.36 499.76 a7.5 7.5 0 1 0 15 0 a7.5 7.5 0 1 0 -15 0zM562.31 537.26 a7.5 7.5 0 1 0 15 0 a7.5 7.5 0 1 0 -15 0zM562.31 612.26 a7.5 7.5 0 1 0 15 0 a7.5 7.5 0 1 0 -15 0zM497.36 649.76 a7.5 7.5 0 1 0 15 0 a7.5 7.5 0 1 0 -15 0zM562.31 -62.74 a7.5 7.5 0 1 0 15 0 a7.5 7.5 0 1 0 -15 0zM627.26 -25.24 a7.5 7.5 0 1 0 15 0 a7.5 7.5 0 1 0 -15 0zM627.26 49.76 a7.5 7.5 0 1 0 15 0 a7.5 7.5 0 1 0 -15 0zM562.31 87.26 a7.5 7.5 0 1 0 15 0 a7.5 7.5 0 1 0 -15 0zM562.31 162.26 a7.5 7.5 0 1 0 15 0 a7.5 7.5 0 1 0 -15 0zM627.26 199.76 a7.5 7.5 0 1 0 15 0 a7.5 7.5 0 1 0 -15 0zM627.26 274.76 a7.5 7.5 0 1 0 15 0 a7.5 7.5 0 1 0 -15 0zM562.31 312.26 a7.5 7.5 0 1 0 15 0 a7.5 7.5 0 1 0 -15 0zM497.36 274.76 a7.5 7.5 0 1 0 15 0 a7.5 7.5 0 1 0 -15 0zM497.36 199.76 a7.5 7.5 0 1 0 15 0 a7.5 7.5 0 1 0 -15 0zM692.22 312.26 a7.5 7.5 0 1 0 15 0 a7.5 7.5 0 1 0 -15 0zM692.22 387.26 a7.5 7.5 0 1 0 15 0 a7.5 7.5 0 1 0 -15 0zM627.26 424.76 a7.5 7.5 0 1 0 15 0 a7.5 7.5 0 1 0 -15 0zM562.31 387.26 a7.5 7.5 0 1 0 15 0 a7.5 7.5 0 1 0 -15 0zM757.17 49.76 a7.5 7.5 0 1 0 15 0 a7.5 7.5 0 1 0 -15 0zM822.13 87.26 a7.5 7.5 0 1 0 15 0 a7.5 7.5 0 1 0 -15 0zM822.13 162.26 a7.5 7.5 0 1 0 15 0 a7.5 7.5 0 1 0 -15 0zM757.17 199.76 a7.5 7.5 0 1 0 15 0 a7.5 7.5 0 1 0 -15 0zM692.22 162.26 a7.5 7.5 0 1 0 15 0 a7.5 7.5 0 1 0 -15 0zM692.22 87.26 a7.5 7.5 0 1 0 15 0 a7.5 7.5 0 1 0 -15 0zM757.17 274.76 a7.5 7.5 0 1 0 15 0 a7.5 7.5 0 1 0 -15 0zM757.17 424.76 a7.5 7.5 0 1 0 15 0 a7.5 7.5 0 1 0 -15 0zM757.17 499.76 a7.5 7.5 0 1 0 15 0 a7.5 7.5 0 1 0 -15 0zM692.22 537.26 a7.5 7.5 0 1 0 15 0 a7.5 7.5 0 1 0 -15 0zM627.26 499.76 a7.5 7.5 0 1 0 15 0 a7.5 7.5 0 1 0 -15 0zM822.13 537.26 a7.5 7.5 0 1 0 15 0 a7.5 7.5 0 1 0 -15 0zM822.13 612.26 a7.5 7.5 0 1 0 15 0 a7.5 7.5 0 1 0 -15 0zM757.17 649.76 a7.5 7.5 0 1 0 15 0 a7.5 7.5 0 1 0 -15 0zM692.22 612.26 a7.5 7.5 0 1 0 15 0 a7.5 7.5 0 1 0 -15 0zM887.08 49.76 a7.5 7.5 0 1 0 15 0 a7.5 7.5 0 1 0 -15 0zM952.03 87.26 a7.5 7.5 0 1 0 15 0 a7.5 7.5 0 1 0 -15 0zM952.03 162.26 a7.5 7.5 0 1 0 15 0 a7.5 7.5 0 1 0 -15 0zM887.08 199.76 a7.5 7.5 0 1 0 15 0 a7.5 7.5 0 1 0 -15 0zM822.12 162.26 a7.5 7.5 0 1 0 15 0 a7.5 7.5 0 1 0 -15 0zM822.12 87.26 a7.5 7.5 0 1 0 15 0 a7.5 7.5 0 1 0 -15 0zM887.08 274.76 a7.5 7.5 0 1 0 15 0 a7.5 7.5 0 1 0 -15 0zM822.12 312.26 a7.5 7.5 0 1 0 15 0 a7.5 7.5 0 1 0 -15 0zM952.03 312.26 a7.5 7.5 0 1 0 15 0 a7.5 7.5 0 1 0 -15 0zM952.03 387.26 a7.5 7.5 0 1 0 15 0 a7.5 7.5 0 1 0 -15 0zM887.08 424.76 a7.5 7.5 0 1 0 15 0 a7.5 7.5 0 1 0 -15 0zM822.12 387.26 a7.5 7.5 0 1 0 15 0 a7.5 7.5 0 1 0 -15 0zM887.08 499.76 a7.5 7.5 0 1 0 15 0 a7.5 7.5 0 1 0 -15 0zM822.12 537.26 a7.5 7.5 0 1 0 15 0 a7.5 7.5 0 1 0 -15 0zM1016.99 49.76 a7.5 7.5 0 1 0 15 0 a7.5 7.5 0 1 0 -15 0zM1081.94 87.26 a7.5 7.5 0 1 0 15 0 a7.5 7.5 0 1 0 -15 0zM1081.94 162.26 a7.5 7.5 0 1 0 15 0 a7.5 7.5 0 1 0 -15 0zM1016.99 199.76 a7.5 7.5 0 1 0 15 0 a7.5 7.5 0 1 0 -15 0zM1016.99 274.76 a7.5 7.5 0 1 0 15 0 a7.5 7.5 0 1 0 -15 0zM1081.94 312.26 a7.5 7.5 0 1 0 15 0 a7.5 7.5 0 1 0 -15 0zM1081.94 387.26 a7.5 7.5 0 1 0 15 0 a7.5 7.5 0 1 0 -15 0zM1016.99 424.76 a7.5 7.5 0 1 0 15 0 a7.5 7.5 0 1 0 -15 0zM1016.99 499.76 a7.5 7.5 0 1 0 15 0 a7.5 7.5 0 1 0 -15 0zM952.03 537.26 a7.5 7.5 0 1 0 15 0 a7.5 7.5 0 1 0 -15 0zM1081.94 -62.74 a7.5 7.5 0 1 0 15 0 a7.5 7.5 0 1 0 -15 0zM1146.89 -25.24 a7.5 7.5 0 1 0 15 0 a7.5 7.5 0 1 0 -15 0zM1146.89 49.76 a7.5 7.5 0 1 0 15 0 a7.5 7.5 0 1 0 -15 0zM1016.99 -25.24 a7.5 7.5 0 1 0 15 0 a7.5 7.5 0 1 0 -15 0zM1146.89 199.76 a7.5 7.5 0 1 0 15 0 a7.5 7.5 0 1 0 -15 0zM1146.89 274.76 a7.5 7.5 0 1 0 15 0 a7.5 7.5 0 1 0 -15 0zM1211.85 162.26 a7.5 7.5 0 1 0 15 0 a7.5 7.5 0 1 0 -15 0zM1276.8 199.76 a7.5 7.5 0 1 0 15 0 a7.5 7.5 0 1 0 -15 0zM1276.8 274.76 a7.5 7.5 0 1 0 15 0 a7.5 7.5 0 1 0 -15 0zM1211.85 312.26 a7.5 7.5 0 1 0 15 0 a7.5 7.5 0 1 0 -15 0zM1341.76 387.26 a7.5 7.5 0 1 0 15 0 a7.5 7.5 0 1 0 -15 0zM1406.71 424.76 a7.5 7.5 0 1 0 15 0 a7.5 7.5 0 1 0 -15 0zM1406.71 499.76 a7.5 7.5 0 1 0 15 0 a7.5 7.5 0 1 0 -15 0zM1341.76 537.26 a7.5 7.5 0 1 0 15 0 a7.5 7.5 0 1 0 -15 0zM1276.8 499.76 a7.5 7.5 0 1 0 15 0 a7.5 7.5 0 1 0 -15 0zM1276.8 424.76 a7.5 7.5 0 1 0 15 0 a7.5 7.5 0 1 0 -15 0zM1471.66 -62.74 a7.5 7.5 0 1 0 15 0 a7.5 7.5 0 1 0 -15 0zM1536.62 -25.24 a7.5 7.5 0 1 0 15 0 a7.5 7.5 0 1 0 -15 0zM1536.62 49.76 a7.5 7.5 0 1 0 15 0 a7.5 7.5 0 1 0 -15 0zM1471.66 87.26 a7.5 7.5 0 1 0 15 0 a7.5 7.5 0 1 0 -15 0zM1406.71 49.76 a7.5 7.5 0 1 0 15 0 a7.5 7.5 0 1 0 -15 0zM1406.71 -25.24 a7.5 7.5 0 1 0 15 0 a7.5 7.5 0 1 0 -15 0zM1471.66 162.26 a7.5 7.5 0 1 0 15 0 a7.5 7.5 0 1 0 -15 0zM1536.62 199.76 a7.5 7.5 0 1 0 15 0 a7.5 7.5 0 1 0 -15 0zM1536.62 274.76 a7.5 7.5 0 1 0 15 0 a7.5 7.5 0 1 0 -15 0zM1471.66 312.26 a7.5 7.5 0 1 0 15 0 a7.5 7.5 0 1 0 -15 0zM1406.71 274.76 a7.5 7.5 0 1 0 15 0 a7.5 7.5 0 1 0 -15 0zM1406.71 199.76 a7.5 7.5 0 1 0 15 0 a7.5 7.5 0 1 0 -15 0z" fill="rgba(0, 0, 0, 0)"></path><path d="M62.03 183.13L105.34 208.13L105.34 258.13L62.03 283.13L18.73 258.13L18.73 208.13zM62.03 333.13L105.34 358.13L105.34 408.13L62.03 433.13L18.73 408.13L18.73 358.13zM105.34 258.13L148.64 283.13L148.64 333.13L105.34 358.13L62.03 333.13L62.03 283.13zM105.34 408.13L148.64 433.13L148.64 483.13L105.34 508.13L62.03 483.13L62.03 433.13zM235.24 33.13L278.55 58.13L278.55 108.13L235.24 133.13L191.94 108.13L191.94 58.13zM235.24 333.13L278.55 358.13L278.55 408.13L235.24 433.13L191.94 408.13L191.94 358.13zM191.94 408.13L235.24 433.13L235.24 483.13L191.94 508.13L148.64 483.13L148.64 433.13zM321.85 33.13L365.15 58.13L365.15 108.13L321.85 133.13L278.55 108.13L278.55 58.13zM278.55 408.13L321.85 433.13L321.85 483.13L278.55 508.13L235.24 483.13L235.24 433.13zM365.15 -41.87L408.45 -16.87L408.45 33.13L365.15 58.13L321.85 33.13L321.85 -16.87zM365.15 258.13L408.45 283.13L408.45 333.13L365.15 358.13L321.85 333.13L321.85 283.13zM365.15 408.13L408.45 433.13L408.45 483.13L365.15 508.13L321.85 483.13L321.85 433.13zM495.06 333.13L538.36 358.13L538.36 408.13L495.06 433.13L451.76 408.13L451.76 358.13zM495.06 483.13L538.36 508.13L538.36 558.13L495.06 583.13L451.76 558.13L451.76 508.13zM581.66 183.13L624.97 208.13L624.97 258.13L581.66 283.13L538.36 258.13L538.36 208.13zM668.27 333.13L711.57 358.13L711.57 408.13L668.27 433.13L624.97 408.13L624.97 358.13zM668.27 483.13L711.57 508.13L711.57 558.13L668.27 583.13L624.97 558.13L624.97 508.13zM754.87 183.13L798.18 208.13L798.18 258.13L754.87 283.13L711.57 258.13L711.57 208.13zM711.57 408.13L754.87 433.13L754.87 483.13L711.57 508.13L668.27 483.13L668.27 433.13zM798.18 108.13L841.48 133.13L841.48 183.13L798.18 208.13L754.87 183.13L754.87 133.13zM798.18 408.13L841.48 433.13L841.48 483.13L798.18 508.13L754.87 483.13L754.87 433.13zM928.08 33.13L971.39 58.13L971.39 108.13L928.08 133.13L884.78 108.13L884.78 58.13zM884.78 108.13L928.08 133.13L928.08 183.13L884.78 208.13L841.48 183.13L841.48 133.13zM884.78 258.13L928.08 283.13L928.08 333.13L884.78 358.13L841.48 333.13L841.48 283.13zM1014.69 183.13L1057.99 208.13L1057.99 258.13L1014.69 283.13L971.39 258.13L971.39 208.13zM1101.29 333.13L1144.6 358.13L1144.6 408.13L1101.29 433.13L1057.99 408.13L1057.99 358.13zM1144.6 -41.87L1187.9 -16.87L1187.9 33.13L1144.6 58.13L1101.29 33.13L1101.29 -16.87zM1187.9 183.13L1231.2 208.13L1231.2 258.13L1187.9 283.13L1144.6 258.13L1144.6 208.13zM1144.6 258.13L1187.9 283.13L1187.9 333.13L1144.6 358.13L1101.29 333.13L1101.29 283.13zM1187.9 333.13L1231.2 358.13L1231.2 408.13L1187.9 433.13L1144.6 408.13L1144.6 358.13zM1274.5 33.13L1317.81 58.13L1317.81 108.13L1274.5 133.13L1231.2 108.13L1231.2 58.13zM1317.81 -41.87L1361.11 -16.87L1361.11 33.13L1317.81 58.13L1274.5 33.13L1274.5 -16.87zM1447.71 333.13L1491.02 358.13L1491.02 408.13L1447.71 433.13L1404.41 408.13L1404.41 358.13z" stroke="rgba(190, 24, 93, 1)" stroke-width="2"></path></g><defs><mask id="SvgjsMask1003"><rect width="1440" height="560" fill="#ffffff"></rect></mask></defs></svg>