<svg xmlns="http://www.w3.org/2000/svg" version="1.1" xmlns:xlink="http://www.w3.org/1999/xlink" xmlns:svgjs="http://svgjs.dev/svgjs" width="1440" height="560" preserveAspectRatio="none" viewBox="0 0 1440 560"><g mask="url(&quot;#SvgjsMask1018&quot;)" fill="none"><path d="M1424 275L1423 569" stroke-width="8" stroke="url(&quot;#SvgjsLinearGradient1019&quot;)" stroke-linecap="round" class="Down"></path><path d="M115 372L114 120" stroke-width="6" stroke="url(&quot;#SvgjsLinearGradient1019&quot;)" stroke-linecap="round" class="Down"></path><path d="M501 540L500 914" stroke-width="6" stroke="url(&quot;#SvgjsLinearGradient1020&quot;)" stroke-linecap="round" class="Up"></path><path d="M351 157L350 -183" stroke-width="8" stroke="url(&quot;#SvgjsLinearGradient1020&quot;)" stroke-linecap="round" class="Up"></path><path d="M480 464L479 98" stroke-width="8" stroke="url(&quot;#SvgjsLinearGradient1019&quot;)" stroke-linecap="round" class="Down"></path><path d="M1406 233L1405 405" stroke-width="8" stroke="url(&quot;#SvgjsLinearGradient1020&quot;)" stroke-linecap="round" class="Up"></path><path d="M639 170L638 -130" stroke-width="8" stroke="url(&quot;#SvgjsLinearGradient1020&quot;)" stroke-linecap="round" class="Up"></path><path d="M1393 77L1392 -294" stroke-width="8" stroke="url(&quot;#SvgjsLinearGradient1019&quot;)" stroke-linecap="round" class="Down"></path><path d="M937 158L936 -95" stroke-width="8" stroke="url(&quot;#SvgjsLinearGradient1019&quot;)" stroke-linecap="round" class="Down"></path><path d="M950 415L949 135" stroke-width="10" stroke="url(&quot;#SvgjsLinearGradient1020&quot;)" stroke-linecap="round" class="Up"></path><path d="M826 235L825 -148" stroke-width="10" stroke="url(&quot;#SvgjsLinearGradient1020&quot;)" stroke-linecap="round" class="Up"></path><path d="M104 55L103 -125" stroke-width="8" stroke="url(&quot;#SvgjsLinearGradient1019&quot;)" stroke-linecap="round" class="Down"></path><path d="M573 239L572 -32" stroke-width="10" stroke="url(&quot;#SvgjsLinearGradient1020&quot;)" stroke-linecap="round" class="Up"></path><path d="M186 24L185 175" stroke-width="6" stroke="url(&quot;#SvgjsLinearGradient1020&quot;)" stroke-linecap="round" class="Up"></path><path d="M841 40L840 416" stroke-width="8" stroke="url(&quot;#SvgjsLinearGradient1019&quot;)" stroke-linecap="round" class="Down"></path><path d="M399 259L398 677" stroke-width="10" stroke="url(&quot;#SvgjsLinearGradient1019&quot;)" stroke-linecap="round" class="Down"></path><path d="M1005 187L1004 472" stroke-width="6" stroke="url(&quot;#SvgjsLinearGradient1020&quot;)" stroke-linecap="round" class="Up"></path><path d="M382 498L381 683" stroke-width="6" stroke="url(&quot;#SvgjsLinearGradient1019&quot;)" stroke-linecap="round" class="Down"></path><path d="M1368 264L1367 465" stroke-width="8" stroke="url(&quot;#SvgjsLinearGradient1019&quot;)" stroke-linecap="round" class="Down"></path><path d="M443 341L442 67" stroke-width="6" stroke="url(&quot;#SvgjsLinearGradient1020&quot;)" stroke-linecap="round" class="Up"></path><path d="M1252 148L1251 414" stroke-width="6" stroke="url(&quot;#SvgjsLinearGradient1019&quot;)" stroke-linecap="round" class="Down"></path><path d="M743 504L742 664" stroke-width="6" stroke="url(&quot;#SvgjsLinearGradient1019&quot;)" stroke-linecap="round" class="Down"></path><path d="M662 338L661 528" stroke-width="6" stroke="url(&quot;#SvgjsLinearGradient1019&quot;)" stroke-linecap="round" class="Down"></path><path d="M49 525L48 275" stroke-width="8" stroke="url(&quot;#SvgjsLinearGradient1020&quot;)" stroke-linecap="round" class="Up"></path><path d="M14 370L13 750" stroke-width="6" stroke="url(&quot;#SvgjsLinearGradient1019&quot;)" stroke-linecap="round" class="Down"></path><path d="M807 23L806 177" stroke-width="8" stroke="url(&quot;#SvgjsLinearGradient1019&quot;)" stroke-linecap="round" class="Down"></path><path d="M788 373L787 622" stroke-width="8" stroke="url(&quot;#SvgjsLinearGradient1020&quot;)" stroke-linecap="round" class="Up"></path><path d="M538 394L537 789" stroke-width="10" stroke="url(&quot;#SvgjsLinearGradient1019&quot;)" stroke-linecap="round" class="Down"></path><path d="M113 128L112 -97" stroke-width="8" stroke="url(&quot;#SvgjsLinearGradient1019&quot;)" stroke-linecap="round" class="Down"></path><path d="M1174 19L1173 373" stroke-width="10" stroke="url(&quot;#SvgjsLinearGradient1019&quot;)" stroke-linecap="round" class="Down"></path><path d="M951 214L950 30" stroke-width="8" stroke="url(&quot;#SvgjsLinearGradient1020&quot;)" stroke-linecap="round" class="Up"></path><path d="M568 498L567 174" stroke-width="8" stroke="url(&quot;#SvgjsLinearGradient1019&quot;)" stroke-linecap="round" class="Down"></path><path d="M1018 428L1017 178" stroke-width="8" stroke="url(&quot;#SvgjsLinearGradient1020&quot;)" stroke-linecap="round" class="Up"></path><path d="M1165 45L1164 423" stroke-width="6" stroke="url(&quot;#SvgjsLinearGradient1020&quot;)" stroke-linecap="round" class="Up"></path><path d="M1284 361L1283 156" stroke-width="8" stroke="url(&quot;#SvgjsLinearGradient1019&quot;)" stroke-linecap="round" class="Down"></path><path d="M757 72L756 344" stroke-width="6" stroke="url(&quot;#SvgjsLinearGradient1020&quot;)" stroke-linecap="round" class="Up"></path></g><defs><mask id="SvgjsMask1018"><rect width="1440" height="560" fill="#ffffff"></rect></mask><linearGradient x1="0%" y1="0%" x2="0%" y2="100%" id="SvgjsLinearGradient1019"><stop stop-color="rgba(190, 24, 93, 0)" offset="0"></stop><stop stop-color="rgba(190, 24, 93, 1)" offset="1"></stop></linearGradient><linearGradient x1="0%" y1="100%" x2="0%" y2="0%" id="SvgjsLinearGradient1020"><stop stop-color="rgba(190, 24, 93, 0)" offset="0"></stop><stop stop-color="rgba(190, 24, 93, 1)" offset="1"></stop></linearGradient></defs></svg>