<svg xmlns="http://www.w3.org/2000/svg" version="1.1" xmlns:xlink="http://www.w3.org/1999/xlink" xmlns:svgjs="http://svgjs.dev/svgjs" width="1440" height="560" preserveAspectRatio="none" viewBox="0 0 1440 560"><g mask="url(&quot;#SvgjsMask1013&quot;)" fill="none"><rect width="1440" height="560" x="0" y="0" fill="url(&quot;#SvgjsLinearGradient1014&quot;)"></rect><path d="M1440 0L1303.73 0L1440 137.36z" fill="rgba(255, 255, 255, .1)"></path><path d="M1303.73 0L1440 137.36L1440 236.5L758.51 0z" fill="rgba(255, 255, 255, .075)"></path><path d="M758.51 0L1440 236.5L1440 376.90999999999997L367.87 0z" fill="rgba(255, 255, 255, .05)"></path><path d="M367.8699999999999 0L1440 376.90999999999997L1440 495.45L346.14999999999986 0z" fill="rgba(255, 255, 255, .025)"></path><path d="M0 560L452.76 560L0 443.1z" fill="rgba(0, 0, 0, .1)"></path><path d="M0 443.1L452.76 560L619.04 560L0 235.23000000000002z" fill="rgba(0, 0, 0, .075)"></path><path d="M0 235.23000000000002L619.04 560L916.1899999999999 560L0 223.92000000000002z" fill="rgba(0, 0, 0, .05)"></path><path d="M0 223.92000000000002L916.1899999999999 560L1244.67 560L0 211.20000000000002z" fill="rgba(0, 0, 0, .025)"></path></g><defs><mask id="SvgjsMask1013"><rect width="1440" height="560" fill="#ffffff"></rect></mask><linearGradient x1="15.28%" y1="-39.29%" x2="84.72%" y2="139.29%" gradientUnits="userSpaceOnUse" id="SvgjsLinearGradient1014"><stop stop-color="#0e2a47" offset="0"></stop><stop stop-color="rgba(17, 24, 39, 1)" offset="1"></stop></linearGradient></defs></svg>